# xmcd CD database file
#
# Track frame offsets:
#	150
#	8501
#	23188
#	42696
#	66455
#	84348
#	96596
#	123739
#	145743
#	169580
#
# Disc length: 2653 seconds
#
# Revision: 3
# Processed by: cddbd v1.5.2PL0 Copyright (c) Steve Scherf et al.
# Submitted via: CDex 1.70beta2
#
DISCID=870a5b0a
DTITLE=Aeternam - Disciples Of The Unseen
DYEAR=2010
DGENRE=Melodic Death Metal
TTITLE0=Ars Almadel
TTITLE1=Angel Horned
TTITLE2=Esoteric Formulae
TTITLE3=The Corronation of Seth
TTITLE4=Hammunaptra
TTITLE5=Iteru
TTITLE6=Godess of Masr
TTITLE7=Oroboros
TTITLE8=Circle in Flames
TTITLE9=Through the Eyes of Ea
EXTD=YEAR: 2010
EXTT0=
EXTT1=
EXTT2=
EXTT3=
EXTT4=
EXTT5=
EXTT6=
EXTT7=
EXTT8=
EXTT9=
PLAYORDER=
